REM DIRINDEX 1\2,1\3,1\4,1\6,1\5\7,1\5\8
REM DIRNAME folder01,folder02,folder03,folder04,folder05,folder06,folder07,folder08
TITLE ""
FILE "DB4500_5th_4B_35.mp3" MP3
  TRACK 01 AUDIO
    TITLE "0:"
    INDEX 01 00:00:00
  TRACK 02 AUDIO
    TITLE "2:cjc114_2879"
    INDEX 01 00:00:05
  TRACK 03 AUDIO
    TITLE "0:"
    INDEX 01 00:01:24
  TRACK 04 AUDIO
    TITLE "3:cjc114_2880"
    INDEX 01 00:01:52
  TRACK 05 AUDIO
    TITLE "0:"
    INDEX 01 00:02:73
  TRACK 06 AUDIO
    TITLE "4:cjc114_2881"
    INDEX 01 00:03:25
  TRACK 07 AUDIO
    TITLE "0:"
    INDEX 01 00:05:73
  TRACK 08 AUDIO
    TITLE "2:cjc114_2882"
    INDEX 01 00:06:53
  TRACK 09 AUDIO
    TITLE "0:"
    INDEX 01 00:07:60
  TRACK 10 AUDIO
    TITLE "3:cjc114_2883"
    INDEX 01 00:08:13
  TRACK 11 AUDIO
    TITLE "0:"
    INDEX 01 00:09:32
  TRACK 12 AUDIO
    TITLE "4:cjc114_2884"
    INDEX 01 00:09:59
  TRACK 13 AUDIO
    TITLE "0:"
    INDEX 01 00:12:63
  TRACK 14 AUDIO
    TITLE "2:cjc114_2885"
    INDEX 01 00:13:41
  TRACK 15 AUDIO
    TITLE "0:"
    INDEX 01 00:14:56
  TRACK 16 AUDIO
    TITLE "3:cjc114_2886"
    INDEX 01 00:15:09
  TRACK 17 AUDIO
    TITLE "0:"
    INDEX 01 00:16:30
  TRACK 18 AUDIO
    TITLE "4:cjc114_2887"
    INDEX 01 00:16:57
  TRACK 19 AUDIO
    TITLE "0:"
    INDEX 01 00:20:49
  TRACK 20 AUDIO
    TITLE "2:cjc114_2888"
    INDEX 01 00:21:27
  TRACK 21 AUDIO
    TITLE "0:"
    INDEX 01 00:22:32
  TRACK 22 AUDIO
    TITLE "3:cjc114_2889"
    INDEX 01 00:22:60
  TRACK 23 AUDIO
    TITLE "0:"
    INDEX 01 00:24:29
  TRACK 24 AUDIO
    TITLE "4:cjc114_2890"
    INDEX 01 00:24:57
  TRACK 25 AUDIO
    TITLE "0:"
    INDEX 01 00:27:59
  TRACK 26 AUDIO
    TITLE "2:cjc114_2891"
    INDEX 01 00:28:37
  TRACK 27 AUDIO
    TITLE "0:"
    INDEX 01 00:29:40
  TRACK 28 AUDIO
    TITLE "3:cjc114_2892"
    INDEX 01 00:29:70
  TRACK 29 AUDIO
    TITLE "0:"
    INDEX 01 00:31:10
  TRACK 30 AUDIO
    TITLE "4:cjc114_2893"
    INDEX 01 00:31:37
  TRACK 31 AUDIO
    TITLE "0:"
    INDEX 01 00:35:57
  TRACK 32 AUDIO
    TITLE "2:cjc114_2894"
    INDEX 01 00:36:33
  TRACK 33 AUDIO
    TITLE "0:"
    INDEX 01 00:37:50
  TRACK 34 AUDIO
    TITLE "3:cjc114_2895"
    INDEX 01 00:38:02
  TRACK 35 AUDIO
    TITLE "0:"
    INDEX 01 00:39:19
  TRACK 36 AUDIO
    TITLE "4:cjc114_2896"
    INDEX 01 00:39:45
  TRACK 37 AUDIO
    TITLE "0:"
    INDEX 01 00:42:74
  TRACK 38 AUDIO
    TITLE "2:cjc114_2897"
    INDEX 01 00:43:54
  TRACK 39 AUDIO
    TITLE "0:"
    INDEX 01 00:44:61
  TRACK 40 AUDIO
    TITLE "3:cjc114_2898"
    INDEX 01 00:45:14
  TRACK 41 AUDIO
    TITLE "0:"
    INDEX 01 00:46:35
  TRACK 42 AUDIO
    TITLE "4:cjc114_2899"
    INDEX 01 00:46:64
  TRACK 43 AUDIO
    TITLE "0:"
    INDEX 01 00:49:45
  TRACK 44 AUDIO
    TITLE "2:cjc114_2900"
    INDEX 01 00:50:23
  TRACK 45 AUDIO
    TITLE "0:"
    INDEX 01 00:51:28
  TRACK 46 AUDIO
    TITLE "3:cjc114_2901"
    INDEX 01 00:51:58
  TRACK 47 AUDIO
    TITLE "0:"
    INDEX 01 00:53:31
  TRACK 48 AUDIO
    TITLE "4:cjc114_2902"
    INDEX 01 00:53:60
  TRACK 49 AUDIO
    TITLE "0:"
    INDEX 01 00:58:13
  TRACK 50 AUDIO
    TITLE "2:cjc114_2903"
    INDEX 01 00:58:67
  TRACK 51 AUDIO
    TITLE "0:"
    INDEX 01 00:59:73
  TRACK 52 AUDIO
    TITLE "3:cjc114_2904"
    INDEX 01 01:00:23
  TRACK 53 AUDIO
    TITLE "0:"
    INDEX 01 01:01:48
  TRACK 54 AUDIO
    TITLE "4:cjc114_2905"
    INDEX 01 01:02:03
  TRACK 55 AUDIO
    TITLE "0:"
    INDEX 01 01:05:21
  TRACK 56 AUDIO
    TITLE "2:cjc114_2906"
    INDEX 01 01:06:00
  TRACK 57 AUDIO
    TITLE "0:"
    INDEX 01 01:07:10
  TRACK 58 AUDIO
    TITLE "3:cjc114_2907"
    INDEX 01 01:07:39
  TRACK 59 AUDIO
    TITLE "0:"
    INDEX 01 01:08:56
  TRACK 60 AUDIO
    TITLE "4:cjc114_2908"
    INDEX 01 01:09:09
  TRACK 61 AUDIO
    TITLE "0:"
    INDEX 01 01:14:10
  TRACK 62 AUDIO
    TITLE "2:cjc114_2909"
    INDEX 01 01:14:63
  TRACK 63 AUDIO
    TITLE "0:"
    INDEX 01 01:16:01
  TRACK 64 AUDIO
    TITLE "3:cjc114_2910"
    INDEX 01 01:16:30
  TRACK 65 AUDIO
    TITLE "0:"
    INDEX 01 01:17:47
  TRACK 66 AUDIO
    TITLE "4:cjc114_2911"
    INDEX 01 01:18:00
  TRACK 67 AUDIO
    TITLE "0:"
    INDEX 01 01:22:62
